<?xml version="1.0" encoding="UTF-8" standalone="no"?>
<svg
   xmlns:dc="http://purl.org/dc/elements/1.1/"
   xmlns:cc="http://creativecommons.org/ns#"
   xmlns:rdf="http://www.w3.org/1999/02/22-rdf-syntax-ns#"
   xmlns:svg="http://www.w3.org/2000/svg"
   xmlns="http://www.w3.org/2000/svg"
   id="svg8"
   version="1.1"
   viewBox="0 0 105.82937 21.584114"
   height="21.584114mm"
   width="105.82937mm">
  <defs
     id="defs2" />
  <metadata
     id="metadata5">
    <rdf:RDF>
      <cc:Work
         rdf:about="">
        <dc:format>image/svg+xml</dc:format>
        <dc:type
           rdf:resource="http://purl.org/dc/dcmitype/StillImage" />
        <dc:title></dc:title>
      </cc:Work>
    </rdf:RDF>
  </metadata>
  <g
     transform="translate(-46.476892,-95.105907)"
     id="layer1">
    <path
       style="fill:#e6240e;stroke-width:0.26458335"
       d="m 47.677673,103.59305 c -0.663071,-0.66307 -0.664031,-0.63123 0.132292,-4.39173 0.363802,-1.718 0.661458,-3.15908 0.661458,-3.20241 0,-0.0433 0.307117,-0.0788 0.682481,-0.0788 0.634074,0 0.668483,0.061 0.485121,0.8599 -0.425342,1.8532 -0.380588,1.92718 1.107821,1.8313 1.862788,-0.12001 2.320605,0.35547 2.163728,2.2472 -0.07267,0.87631 -0.307078,1.6174 -0.62412,1.97319 -1.151242,1.29192 -3.663231,1.70688 -4.608781,0.76133 z m 3.421567,-1.29762 c 0.931166,-1.3077 0.665612,-2.67113 -0.520254,-2.67113 -0.949062,0 -1.842979,1.08675 -1.842979,2.24054 0,1.03462 0.148702,1.19904 1.084414,1.19904 0.505587,0 0.900696,-0.23742 1.278819,-0.76845 z m 3.679368,1.69577 c -0.175179,-0.17517 0.660576,-5.07286 0.907843,-5.32012 0.106757,-0.10676 0.476698,-0.0429 0.82209,0.14198 0.491736,0.26317 0.756137,0.26751 1.218632,0.02 0.383941,-0.20548 0.680986,-0.22577 0.848789,-0.058 0.270112,0.27011 0.163823,0.39705 -1.168482,1.39545 -0.430975,0.32297 -0.840979,0.98732 -1.01877,1.65077 -0.470716,1.75655 -0.735847,2.30092 -1.120642,2.30092 -0.197147,0 -0.417404,-0.059 -0.48946,-0.13102 z m 5.182114,-0.42034 c -0.621359,-0.68659 -0.621162,-2.34358 3.97e-4,-3.29219 0.74443,-1.13615 1.966754,-1.71061 3.642091,-1.71172 0.828157,-5.2e-4 1.567641,0.0992 1.643299,0.22159 0.180582,0.29219 -0.639656,4.86452 -0.929752,5.18281 -0.136517,0.14978 -0.491422,0.103 -0.907352,-0.11959 -0.540501,-0.28927 -0.789458,-0.29921 -1.192381,-0.0476 -0.767716,0.47945 -1.698344,0.38322 -2.256297,-0.23332 z m 3.136617,-1.34302 c 0.287671,-0.38706 0.537571,-1.16097 0.555333,-1.71979 0.02749,-0.86486 -0.05654,-1.02866 -0.564743,-1.10082 -0.387235,-0.055 -0.875359,0.19355 -1.389063,0.70725 -0.770087,0.77009 -0.979831,1.62296 -0.625934,2.5452 0.247128,0.644 1.409032,0.39615 2.024407,-0.43184 z m 4.424086,1.36521 c -0.291042,-0.29104 -0.529167,-0.62415 -0.529167,-0.74024 0,-0.11609 0.297656,-1.6167 0.661458,-3.3347 0.363802,-1.71799 0.661459,-3.23036 0.661459,-3.3608 0,-0.13045 0.289053,-0.23718 0.642341,-0.23718 0.620771,0 0.637275,0.0491 0.491455,1.46195 l -0.150887,1.46196 1.435857,-0.16876 c 1.184569,-0.13922 1.503724,-0.087 1.82365,0.2985 0.577938,0.69638 0.490751,2.58803 -0.160182,3.47539 -1.159502,1.58064 -3.816013,2.20385 -4.875984,1.14388 z m 3.458835,-1.2752 c 0.362009,-0.46022 0.510039,-0.98574 0.456638,-1.62111 -0.07058,-0.83984 -0.167496,-0.94875 -0.908316,-1.02078 -1.043632,-0.10146 -1.948824,0.9296 -1.948824,2.21983 0,1.50741 1.35884,1.74632 2.400502,0.42206 z m 4.122798,1.32051 c -0.601258,-0.66438 -0.552633,-2.3674 0.09807,-3.43467 0.682974,-1.12021 2.035104,-1.6861 3.786241,-1.58462 1.546357,0.0896 1.464373,-0.14748 1.094274,3.16465 -0.25682,2.29838 -0.416409,2.55505 -1.295953,2.08433 -0.531566,-0.28448 -0.821193,-0.29603 -1.352574,-0.0539 -0.974474,0.444 -1.827398,0.37966 -2.330053,-0.17577 z m 3.151717,-1.22586 c 0.616603,-0.94105 0.817218,-2.73824 0.326678,-2.92648 -1.421511,-0.54548 -3.33725,2.19897 -2.275861,3.26036 0.529865,0.52987 1.491123,0.36521 1.949183,-0.33388 z m 4.032343,1.57055 c -0.166347,-0.16635 0.704117,-5.10009 0.941736,-5.33771 0.09093,-0.0909 0.4703,-0.0264 0.843032,0.14345 0.467246,0.21289 0.831927,0.22623 1.17435,0.043 0.677937,-0.36283 1.944175,-0.33474 2.330607,0.0517 0.412689,0.41269 0.396655,2.11589 -0.03562,3.78355 -0.262702,1.01346 -0.46265,1.32291 -0.854792,1.32291 -0.439954,0 -0.495729,-0.1487 -0.396954,-1.05833 0.06321,-0.58208 0.12274,-1.53458 0.132291,-2.11667 0.01561,-0.95168 -0.05286,-1.06647 -0.679537,-1.13909 -0.870278,-0.10085 -1.73581,0.91121 -1.958816,2.29041 -0.222383,1.37534 -0.583984,2.15598 -0.998673,2.15598 -0.197149,0 -0.421076,-0.0626 -0.49762,-0.13917 z m 8.235317,-0.27908 c -0.27704,-0.33382 -0.28587,-0.71023 -0.0437,-1.86456 0.21834,-1.04091 0.22366,-1.62124 0.019,-2.07041 -0.24098,-0.52888 -0.16859,-0.7692 0.47437,-1.57502 0.89335,-1.11962 1.33999,-1.19636 1.68478,-0.28947 0.13832,0.3638 0.3735,0.66145 0.52262,0.66145 0.54006,0 0.25534,0.81286 -0.36769,1.04973 -0.63773,0.24247 -0.76574,0.48254 -1.07124,2.00905 -0.12202,0.60972 -0.0332,0.9264 0.35928,1.28163 0.28674,0.2595 0.4571,0.63922 0.37859,0.84383 -0.19329,0.5037 -1.5257,0.47221 -1.95596,-0.0462 z"
       id="path3749" />
    <path
       style="fill:#0e5ea6;stroke-width:0.26458335"
       d="m 47.733663,116.55951 c -0.691224,-0.0545 -1.256771,-0.21163 -1.256771,-0.34918 0,-0.15076 2.780478,-0.25009 7.000651,-0.25009 3.850358,0 7.928249,-0.12024 9.06198,-0.2672 4.889753,-0.63384 6.378494,-0.84535 7.74987,-1.10105 2.683085,-0.50029 8.843844,-1.85274 10.847918,-2.3814 1.091406,-0.28791 3.532188,-0.92658 5.423959,-1.41925 1.89177,-0.49268 4.332547,-1.13839 5.423957,-1.43491 1.09141,-0.29652 2.77984,-0.72558 3.75207,-0.95346 0.97224,-0.22788 1.9154,-0.59231 2.09593,-0.80982 0.25999,-0.31328 0.2633,-1.34106 0.0159,-4.94388 -0.17178,-2.50162 -0.31128,-4.982893 -0.30999,-5.513943 0.002,-0.95585 0.0145,-0.96651 1.21262,-1.0618 0.665645,-0.0529 1.316963,-0.0303 1.447373,0.0503 0.13041,0.0806 0.27039,1.80856 0.31108,3.83993 0.0979,4.886103 0.35586,4.885763 2.39474,-0.003 0.84789,-2.03311 1.64303,-3.75952 1.76698,-3.83646 0.12395,-0.0769 0.89202,-0.0991 1.70683,-0.0493 l 1.48146,0.0906 v 3.53177 c 0,1.942473 0.10315,3.595523 0.22922,3.673443 0.41028,0.25356 0.97754,-0.71696 2.27182,-3.886833 0.69952,-1.71322 1.42892,-3.20284 1.62089,-3.31027 0.44502,-0.24905 2.75724,-0.0738 2.75724,0.20897 0,0.11703 -0.82017,1.934 -1.82261,4.037713 -1.00243,2.1037 -1.89844,4.06386 -1.99113,4.35589 -0.0927,0.29203 -0.37384,0.70346 -0.62479,0.91429 -0.49402,0.41504 -4.17931,1.11071 -4.57815,0.86421 -0.13405,-0.0829 -0.24374,-1.21517 -0.24374,-2.51627 0,-3.23365 -0.39849,-3.12425 -1.98437,0.54478 -0.69189,1.60073 -1.30362,2.91042 -1.3594,2.91042 -0.0558,0 -1.20148,0.25235 -2.546008,0.56078 -1.344515,0.30843 -2.861305,0.6507 -3.370635,0.76061 -0.91255,0.19692 -6.0516,1.53367 -10.186454,2.64967 -3.484097,0.94036 -7.075941,1.85764 -8.202084,2.09465 -5.422538,1.14125 -9.04593,1.81377 -12.170834,2.25899 -5.122279,0.72977 -13.616345,1.08101 -17.925522,0.74122 z m 89.504477,-9.92574 c -2.54164,-0.91703 -2.93326,-5.11524 -0.70582,-7.566463 1.72794,-1.90153 5.45003,-2.23031 6.70751,-0.59249 0.4493,0.5852 0.41737,2.174753 -0.0573,2.852433 -0.47177,0.67355 -2.15637,1.35905 -3.97667,1.61818 -1.05599,0.15033 -1.331,0.29574 -1.39435,0.73722 -0.12053,0.83999 0.5747,1.22181 2.1896,1.20252 1.36051,-0.0162 1.46119,0.0252 1.46119,0.60162 0,0.3405 -0.16599,0.75684 -0.36886,0.92521 -0.5595,0.46435 -2.82226,0.59451 -3.85531,0.22177 z m 3.48639,-5.85112 c 0.9527,-0.59498 0.37953,-1.755733 -0.86696,-1.755733 -1.29137,0 -2.60352,1.524383 -1.90952,2.218383 0.24311,0.24311 2.15706,-0.0758 2.77648,-0.46265 z m -25.62193,3.94048 c -0.0886,-0.23092 -0.1098,-1.12943 -0.0471,-1.99667 0.14709,-2.03345 1.17529,-3.534133 3.12394,-4.559443 1.21842,-0.64109 1.67026,-0.72712 3.80003,-0.72355 1.32945,0.002 2.56452,0.0976 2.74461,0.21201 0.25583,0.16249 0.20376,0.89927 -0.23809,3.369393 -0.31103,1.73878 -0.6965,3.2489 -0.85659,3.35581 -0.16009,0.10691 -0.86655,0.19621 -1.5699,0.19844 -0.92168,0.003 -1.24013,-0.0883 -1.14027,-0.32668 0.53026,-1.26579 0.98497,-3.23552 0.91491,-3.96324 -0.0675,-0.700683 -0.20923,-0.879043 -0.74478,-0.937003 -0.90598,-0.0981 -2.26215,0.793803 -2.80678,1.845833 -0.24817,0.47938 -0.52184,1.52644 -0.60816,2.32681 l -0.15694,1.4552 -1.1269,0.0815 c -0.83771,0.0606 -1.16824,-0.0263 -1.28801,-0.33839 z m 13.22272,-1.79361 c 0.0903,-0.61846 0.24218,-1.57774 0.33761,-2.13174 0.15288,-0.887533 0.10454,-1.025303 -0.40664,-1.158983 -0.48343,-0.12642 -0.5668,-0.31136 -0.50009,-1.1094 0.0647,-0.77326 0.19902,-0.97454 0.6978,-1.04517 0.40955,-0.058 0.74329,-0.38801 0.99032,-0.97924 0.28422,-0.68024 0.60837,-0.95723 1.36665,-1.16781 1.38482,-0.38458 1.35144,-0.40416 1.44185,0.84547 0.0728,1.00619 0.1579,1.13328 0.80897,1.2082 0.56376,0.0649 0.7276,0.22383 0.7276,0.70596 0,1.04766 -0.28691,1.45908 -1.02049,1.46333 -1.06875,0.006 -1.31787,0.29019 -1.6297,1.857913 -0.48393,2.43297 -0.62854,2.63595 -1.87802,2.63595 h -1.09997 z m 17.27147,-0.52916 c 0.0946,-0.61847 0.30736,-1.95792 0.47281,-2.976573 l 0.30083,-1.85208 0.96305,-0.0808 c 0.77896,-0.0653 0.99604,0.0232 1.13564,0.46302 0.21387,0.67384 0.48998,0.68209 1.40442,0.042 0.74543,-0.5218 2.43965,-0.95084 2.4327,-0.61604 -0.002,0.1055 -0.16836,0.66414 -0.36927,1.24143 -0.25124,0.72188 -0.56461,1.10291 -1.00366,1.22033 -1.26913,0.339423 -1.77039,0.795453 -2.44746,2.226673 -0.68432,1.44653 -0.69717,1.45652 -1.87504,1.45652 h -1.18601 z"
       id="path3747" />
  </g>
</svg>
